<svg width="20" height="20" viewBox="0 0 20 20" fill="none" xmlns="http://www.w3.org/2000/svg">
<path d="M19.7736 3.55335L16.4466 0.225987C16.3019 0.0812607 16.1056 0 15.901 0C15.6965 0 15.5002 0.0812607 15.3556 0.225884L12.028 3.55346C12.0276 3.55387 12.0272 3.55449 12.0267 3.5549L5.6443 9.93725C5.50534 10.0763 5.42469 10.2629 5.41873 10.4594L5.31432 13.8909C5.30784 14.1036 5.38952 14.3094 5.5399 14.4599C5.68483 14.6047 5.88109 14.6858 6.08537 14.6858C6.09319 14.6858 6.10111 14.6857 6.10893 14.6853L9.54039 14.5806C9.73675 14.5747 9.92345 14.494 10.0624 14.3552L19.7736 4.6442C20.0749 4.34313 20.0749 3.85464 19.7736 3.55335ZM15.9007 6.33494L13.6645 4.09903L15.901 1.86252L18.1371 4.09883L15.9007 6.33494ZM9.18768 13.048L6.88142 13.1185L6.95157 10.8121L12.5735 5.19009L14.8098 7.42609L9.18768 13.048Z" fill="#808080"/>
<path d="M13.5971 12.0437C13.171 12.0437 12.8256 12.389 12.8256 12.8151V18.4565H1.54292V7.17378H7.18427C7.61032 7.17378 7.95573 6.82848 7.95573 6.40232C7.95573 5.97617 7.61032 5.63086 7.18427 5.63086H0.771462C0.345409 5.63086 0 5.97617 0 6.40232V19.2278C0 19.654 0.345409 19.9993 0.771462 19.9993H13.597C14.023 19.9993 14.3684 19.654 14.3684 19.2278V12.815C14.3685 12.389 14.0231 12.0437 13.5971 12.0437Z" fill="#808080"/>
</svg>
