<svg width="23" height="23" viewBox="0 0 23 23" fill="none" xmlns="http://www.w3.org/2000/svg">
<path d="M11.5 0C5.1589 0 0 5.15883 0 11.5C0 17.841 5.1589 23 11.5 23C17.8411 23 23 17.841 23 11.5C23 5.15883 17.8411 0 11.5 0ZM11.5 20.9091C6.31183 20.9091 2.09091 16.6882 2.09091 11.5C2.09091 6.31183 6.31183 2.09091 11.5 2.09091C16.6882 2.09091 20.9091 6.31183 20.9091 11.5C20.9091 16.6882 16.6882 20.9091 11.5 20.9091Z" fill="white"/>
<path d="M14.7524 8.85977L12.5452 11.0668V5.2271C12.5452 4.64966 12.0771 4.18164 11.4998 4.18164C10.9224 4.18164 10.4543 4.64966 10.4543 5.2271V11.0668L8.24734 8.85977C7.83913 8.45156 7.17714 8.45156 6.76886 8.85977C6.36058 9.26813 6.36058 9.92997 6.76886 10.3383L10.7605 14.3299C10.9646 14.5341 11.2322 14.6362 11.4997 14.6362C11.7672 14.6362 12.0348 14.5341 12.239 14.33L16.2309 10.3384C16.6391 9.93018 16.6391 9.2682 16.2309 8.85977C15.8226 8.45156 15.1607 8.45156 14.7524 8.85977Z" fill="white"/>
<path d="M13.5908 16.7275H9.40898C8.83161 16.7275 8.36353 17.1956 8.36353 17.773C8.36353 18.3503 8.83161 18.8184 9.40898 18.8184H13.5908C14.1682 18.8184 14.6363 18.3503 14.6363 17.773C14.6363 17.1956 14.1682 16.7275 13.5908 16.7275Z" fill="white"/>
</svg>
