<svg width="23" height="23" viewBox="0 0 23 23" fill="none" xmlns="http://www.w3.org/2000/svg">
<g clip-path="url(#clip0_161_3315)">
<path fill-rule="evenodd" clip-rule="evenodd" d="M20.2725 6.36832C21.0075 6.06823 21.8467 6.42079 22.1467 7.1558C24.5475 13.0359 21.7268 19.7488 15.8468 22.1495C12.4529 23.5352 8.78049 23.18 5.82465 21.5053C5.13392 21.1139 4.89124 20.2366 5.28261 19.5459C5.67398 18.8552 6.5512 18.6125 7.24195 19.0039C9.46469 20.2633 12.2158 20.5265 14.7601 19.4878C19.1701 17.6873 21.2855 12.6526 19.485 8.24253C19.1849 7.50752 19.5375 6.6684 20.2725 6.36832ZM3.15593 13.6906C3.25076 14.0501 3.37006 14.4081 3.51486 14.7629C3.65967 15.1175 3.82506 15.4568 4.00891 15.7799C4.40157 16.4699 4.16048 17.3475 3.47047 17.7402C2.78045 18.1328 1.90277 17.8917 1.51014 17.2017C1.26494 16.7708 1.0451 16.3197 0.853162 15.8495C0.661229 15.3794 0.502486 14.9033 0.376026 14.4239C0.173525 13.6563 0.631671 12.8698 1.39932 12.6673C2.16697 12.4648 2.95343 12.923 3.15593 13.6906ZM3.53501 5.18514C4.22083 5.5851 4.45255 6.46528 4.05261 7.15108C3.67267 7.80259 3.37891 8.50169 3.1795 9.22905C2.9696 9.9947 2.17875 10.4452 1.41308 10.2353C0.647429 10.0254 0.196911 9.23454 0.406824 8.46888C0.672306 7.50054 1.06325 6.57009 1.56907 5.70273C1.96903 5.01693 2.84921 4.78519 3.53501 5.18514ZM14.5337 0.409509C15.5021 0.674991 16.4325 1.06594 17.2999 1.57177C17.9857 1.97171 18.2174 2.85189 17.8175 3.5377C17.4176 4.22351 16.5374 4.45524 15.8516 4.0553C15.2001 3.67535 14.5009 3.38161 13.7736 3.18219C13.0079 2.97228 12.5574 2.18143 12.7673 1.41577C12.9772 0.650114 13.7681 0.199596 14.5337 0.409509ZM10.3353 1.40201C10.5378 2.16966 10.0796 2.95611 9.31199 3.15861C8.95252 3.25344 8.59448 3.37274 8.23981 3.51754C7.88512 3.66236 7.5459 3.82774 7.22278 4.01161C6.53276 4.40425 5.65508 4.16317 5.26244 3.47315C4.8698 2.78314 5.11089 1.90546 5.8009 1.51282C6.23182 1.26762 6.68298 1.04778 7.15309 0.855847C7.62318 0.663914 8.09929 0.505171 8.57868 0.378711C9.34634 0.176212 10.1328 0.634356 10.3353 1.40201Z" fill="#808080"/>
</g>
<defs>
<clipPath id="clip0_161_3315">
<rect width="23" height="23" fill="white"/>
</clipPath>
</defs>
</svg>
