<svg width="72" height="72" viewBox="0 0 72 72" fill="none" xmlns="http://www.w3.org/2000/svg">
<path d="M58.7872 51.2863H65.1063V4.32779H40.4014C39.0141 4.32779 37.7264 5.0193 36.9569 6.17742C36.7438 6.4979 36.3848 6.69046 35.9999 6.69046C35.6151 6.69046 35.256 6.4979 35.0431 6.17742C34.2733 5.01914 32.9856 4.32764 31.5984 4.32764H6.89355V51.2862H31.5984C33.2552 51.2862 34.8205 51.919 35.9998 53.0271C37.1791 51.919 38.7444 51.2862 40.4014 51.2862H43.468C44.1025 51.2862 44.6168 51.8005 44.617 52.4348H46.9148V18.1913C46.9148 18.153 46.9168 18.1147 46.9207 18.0769C46.9237 18.0456 46.9289 18.0151 46.9344 17.9848C46.9357 17.9784 46.9361 17.9719 46.9374 17.9655C46.9531 17.8868 46.9767 17.8111 47.0077 17.7391L50.0675 10.3963C50.2458 9.96815 50.6643 9.68934 51.1281 9.68934C51.5919 9.68934 52.0103 9.9683 52.1886 10.3965L55.2475 17.7385C55.2786 17.8106 55.3024 17.8866 55.3182 17.9657C55.3194 17.9715 55.3197 17.9775 55.3209 17.9833C55.3266 18.0142 55.3318 18.0453 55.3348 18.077C55.3387 18.115 55.3407 18.1532 55.3407 18.1915V52.4351H57.6385C57.6384 51.8006 58.1527 51.2863 58.7872 51.2863ZM29.4839 47.4566H11.8723C11.2376 47.4566 10.7233 46.9421 10.7233 46.3076V36.596C10.7233 35.9615 11.2376 35.4471 11.8723 35.4471C12.507 35.4471 13.0212 35.9615 13.0212 36.596V45.1587H15.5726V41.1918C15.5726 40.5573 16.0869 40.0429 16.7216 40.0429C17.3562 40.0429 17.8705 40.5573 17.8705 41.1918V45.1587H20.4217V36.596C20.4217 35.9615 20.936 35.4471 21.5707 35.4471C22.2054 35.4471 22.7196 35.9615 22.7196 36.596V45.1587H25.271V41.1918C25.271 40.5573 25.7853 40.0429 26.42 40.0429C27.0546 40.0429 27.5689 40.5573 27.5689 41.1918V45.1587H29.4838C30.1185 45.1587 30.6327 45.6731 30.6327 46.3076C30.6327 46.9421 30.1185 47.4566 29.4839 47.4566ZM29.4839 32.2871H11.8723C11.2376 32.2871 10.7233 31.7727 10.7233 31.1381C10.7233 30.5036 11.2376 29.9892 11.8723 29.9892H29.4839C30.1186 29.9892 30.6329 30.5036 30.6329 31.1381C30.6329 31.7727 30.1185 32.2871 29.4839 32.2871ZM29.4839 26.8292H11.8723C11.2376 26.8292 10.7233 26.3148 10.7233 25.6802C10.7233 25.0457 11.2376 24.5313 11.8723 24.5313H29.4839C30.1186 24.5313 30.6329 25.0457 30.6329 25.6802C30.6329 26.3148 30.1185 26.8292 29.4839 26.8292ZM10.7233 20.2223C10.7233 19.5878 11.2376 19.0734 11.8723 19.0734H20.678C21.3127 19.0734 21.827 19.5878 21.827 20.2223C21.827 20.8568 21.3127 21.3713 20.678 21.3713H11.8723C11.2376 21.3713 10.7233 20.8568 10.7233 20.2223ZM29.4839 15.9134H11.8723C11.2376 15.9134 10.7233 15.3989 10.7233 14.7644C10.7233 14.1299 11.2376 13.6155 11.8723 13.6155H29.4839C30.1186 13.6155 30.6329 14.1299 30.6329 14.7644C30.6329 15.3989 30.1185 15.9134 29.4839 15.9134ZM29.4839 10.4554H11.8723C11.2376 10.4554 10.7233 9.94103 10.7233 9.30651C10.7233 8.67199 11.2376 8.15758 11.8723 8.15758H29.4839C30.1186 8.15758 30.6329 8.67199 30.6329 9.30651C30.6329 9.94103 30.1185 10.4554 29.4839 10.4554ZM37.1489 48.8716C37.1489 49.5061 36.6346 50.0205 35.9999 50.0205C35.3653 50.0205 34.851 49.5061 34.851 48.8716V10.1374C34.851 9.50291 35.3653 8.98849 35.9999 8.98849C36.6346 8.98849 37.1489 9.50291 37.1489 10.1374V48.8716Z" fill="white"/>
<path d="M31.5985 55.8821C32.7619 55.8821 33.8798 56.1954 34.851 56.7649V55.1687C34.0691 54.1716 32.8765 53.5842 31.5985 53.5842H5.74463V55.8821H31.5985Z" fill="#C1E8E6"/>
<path d="M58.7871 55.8822H66.2552V53.5843H58.7871C58.1525 53.5843 57.6382 53.0699 57.6382 52.4354C57.6382 52.4351 55.3403 52.4351 55.3403 52.4351V57.0308H57.6382C57.6384 56.3964 58.1526 55.8822 58.7871 55.8822Z" fill="#C1E8E6"/>
<path d="M44.617 52.4354C44.617 53.0699 44.1027 53.5843 43.4681 53.5843H40.4015C39.1231 53.5843 37.9305 54.1716 37.1489 55.1688V56.7649C38.1202 56.1953 39.2378 55.8822 40.4015 55.8822H43.4681C44.1026 55.8822 44.6169 56.3964 44.617 57.0308H46.9149V52.4351C46.9149 52.4351 44.617 52.4351 44.617 52.4354Z" fill="#C1E8E6"/>
<path d="M44.617 57.031C44.617 57.6656 44.1027 58.18 43.4681 58.18H40.4015C39.0137 58.18 37.726 58.8707 36.9567 60.0278C36.9312 60.0656 36.9047 60.1002 36.8764 60.1336C36.8686 60.1428 36.8603 60.1512 36.8522 60.1603C36.8312 60.1836 36.8096 60.2059 36.7868 60.2274C36.7764 60.2372 36.7659 60.2468 36.7551 60.2562C36.7312 60.277 36.7065 60.2966 36.6809 60.3155C36.6719 60.322 36.6633 60.3291 36.6541 60.3355C36.6184 60.3603 36.5815 60.3835 36.543 60.4042C36.5038 60.425 36.4651 60.4425 36.4257 60.4582C36.4157 60.4622 36.4056 60.4656 36.3955 60.4693C36.3647 60.4806 36.3333 60.4907 36.3013 60.4994C36.2891 60.5028 36.2768 60.506 36.2645 60.5089C36.233 60.5163 36.2011 60.5223 36.1686 60.527C36.1567 60.5287 36.1449 60.5312 36.1328 60.5325C36.0894 60.5376 36.0455 60.5406 36.0007 60.5408C35.9549 60.5408 35.9107 60.5376 35.867 60.5325C35.8554 60.5312 35.844 60.529 35.8325 60.5273C35.7996 60.5226 35.7671 60.5166 35.7351 60.5089C35.7232 60.506 35.7112 60.503 35.6994 60.4997C35.6668 60.491 35.6351 60.4808 35.6037 60.4693C35.594 60.4657 35.5844 60.4625 35.5747 60.4587C35.5346 60.4428 35.4952 60.425 35.4574 60.4048C35.4185 60.3839 35.3812 60.3606 35.3454 60.3357C35.3367 60.3297 35.3284 60.323 35.3198 60.3165C35.2939 60.2974 35.2686 60.2775 35.2444 60.2562C35.2339 60.247 35.2236 60.2375 35.2133 60.228C35.1902 60.2062 35.1683 60.1836 35.147 60.16C35.1392 60.1514 35.1311 60.1431 35.1236 60.1342C35.0951 60.1007 35.0683 60.0658 35.0438 60.0291C34.2732 58.8712 32.9855 58.1803 31.598 58.1803H5.74466C5.10999 58.1803 4.59572 57.6659 4.59572 57.0313C4.59572 56.3968 5.10999 55.8824 5.74466 55.8824V53.5845C5.10999 53.5845 4.59572 53.0701 4.59572 52.4356V13.5193H2.29785V60.4778H31.5985C32.186 60.4778 32.7338 60.7574 33.0808 61.2299L34.0661 62.3791L37.9348 62.3788L38.9197 61.2295C39.266 60.7573 39.8137 60.4778 40.4018 60.4778H46.9152V57.0307C46.9149 57.0307 44.617 57.0307 44.617 57.031Z" fill="#98D9D5"/>
<path d="M67.4042 52.4353C67.4042 53.0698 66.8899 53.5842 66.2552 53.5842V55.8821C66.8899 55.8821 67.4042 56.3965 67.4042 57.031C67.4042 57.6656 66.8899 58.18 66.2552 58.18H58.7871C58.1525 58.18 57.6382 57.6656 57.6382 57.031C57.6382 57.0307 55.3403 57.0307 55.3403 57.0307V60.4778H69.702V13.5193H67.4042V52.4353Z" fill="#98D9D5"/>
<path d="M29.484 45.1588H27.5691V41.1919C27.5691 40.5574 27.0548 40.043 26.4202 40.043C25.7855 40.043 25.2712 40.5574 25.2712 41.1919V45.1588H22.7198V36.5962C22.7198 35.9617 22.2055 35.4473 21.5709 35.4473C20.9362 35.4473 20.4219 35.9617 20.4219 36.5962V45.1588H17.8707V41.1919C17.8707 40.5574 17.3564 40.043 16.7218 40.043C16.0871 40.043 15.5728 40.5574 15.5728 41.1919V45.1588H13.0213V36.5962C13.0213 35.9617 12.507 35.4473 11.8723 35.4473C11.2377 35.4473 10.7234 35.9617 10.7234 36.5962V46.3078C10.7234 46.9423 11.2377 47.4567 11.8723 47.4567H29.484C30.1187 47.4567 30.6329 46.9423 30.6329 46.3078C30.6329 45.6733 30.1185 45.1588 29.484 45.1588Z" fill="#082947"/>
<path d="M29.484 8.15771H11.8723C11.2377 8.15771 10.7234 8.67213 10.7234 9.30665C10.7234 9.94117 11.2377 10.4556 11.8723 10.4556H29.484C30.1187 10.4556 30.6329 9.94117 30.6329 9.30665C30.6329 8.67213 30.1185 8.15771 29.484 8.15771Z" fill="#082947"/>
<path d="M29.484 13.6155H11.8723C11.2377 13.6155 10.7234 14.1299 10.7234 14.7644C10.7234 15.3989 11.2377 15.9134 11.8723 15.9134H29.484C30.1187 15.9134 30.6329 15.3989 30.6329 14.7644C30.6329 14.1299 30.1185 13.6155 29.484 13.6155Z" fill="#082947"/>
<path d="M11.8723 21.3714H20.6781C21.3127 21.3714 21.827 20.8569 21.827 20.2224C21.827 19.5879 21.3127 19.0735 20.6781 19.0735H11.8723C11.2377 19.0735 10.7234 19.5879 10.7234 20.2224C10.7234 20.8569 11.2377 21.3714 11.8723 21.3714Z" fill="#082947"/>
<path d="M29.484 24.5315H11.8723C11.2377 24.5315 10.7234 25.0459 10.7234 25.6804C10.7234 26.3149 11.2377 26.8294 11.8723 26.8294H29.484C30.1187 26.8294 30.6329 26.3149 30.6329 25.6804C30.6329 25.0459 30.1185 24.5315 29.484 24.5315Z" fill="#082947"/>
<path d="M29.484 29.9893H11.8723C11.2377 29.9893 10.7234 30.5037 10.7234 31.1382C10.7234 31.7727 11.2377 32.2871 11.8723 32.2871H29.484C30.1187 32.2871 30.6329 31.7727 30.6329 31.1382C30.6329 30.5037 30.1185 29.9893 29.484 29.9893Z" fill="#082947"/>
<path d="M36 8.98853C35.3653 8.98853 34.8511 9.50294 34.8511 10.1375V48.8716C34.8511 49.5061 35.3653 50.0206 36 50.0206C36.6347 50.0206 37.1489 49.5061 37.1489 48.8716V10.1375C37.1489 9.50279 36.6347 8.98853 36 8.98853Z" fill="#082947"/>
<path d="M70.8511 11.2215H67.4043V3.17897C67.4043 2.54445 66.89 2.03003 66.2553 2.03003H40.4015C38.7446 2.03003 37.1791 2.66348 36 3.77228C34.8207 2.66348 33.2553 2.03003 31.5985 2.03003H5.74468C5.11001 2.03003 4.59574 2.54445 4.59574 3.17897V11.2215H1.14894C0.514264 11.2215 0 11.7359 0 12.3705V61.6269C0 62.2614 0.514264 62.7758 1.14894 62.7758H31.3793L32.6655 64.276C32.8838 64.5306 33.2024 64.6771 33.5378 64.6771L38.4632 64.6766C38.7985 64.6766 39.1173 64.53 39.3354 64.2753L40.6206 62.7757H46.9147V66.9828C46.9147 68.6299 48.2549 69.97 49.9023 69.97H52.3533C54.0003 69.97 55.3403 68.6299 55.3403 66.9828V62.7757H70.8511C71.4857 62.7757 72 62.2612 72 61.6267V12.3705C72 11.7359 71.4857 11.2215 70.8511 11.2215ZM69.7021 60.4779H55.3404V18.1914C55.3404 18.1531 55.3384 18.115 55.3346 18.077C55.3314 18.0453 55.3263 18.0142 55.3207 17.9832C55.3196 17.9774 55.3191 17.9714 55.3179 17.9656C55.3021 17.8867 55.2784 17.8107 55.2473 17.7384L52.1884 10.3964C52.01 9.96826 51.5917 9.6893 51.1278 9.6893C50.6641 9.6893 50.2456 9.96811 50.0673 10.3963L47.0074 17.7391C46.9766 17.8111 46.9529 17.8867 46.9371 17.9655C46.9359 17.9719 46.9354 17.9783 46.9342 17.9848C46.9287 18.0151 46.9235 18.0457 46.9204 18.0768C46.9166 18.1148 46.9146 18.153 46.9146 18.1913V60.4778H40.4012C39.8131 60.4778 39.2654 60.7572 38.9191 61.2295L37.9342 62.3787L34.0655 62.3791L33.0802 61.2298C32.7332 60.7574 32.1854 60.4778 31.5979 60.4778H2.29787V13.5194H4.59574V52.4354C4.59574 53.0699 5.11001 53.5843 5.74468 53.5843H31.5985C32.8767 53.5843 34.0692 54.1717 34.8511 55.1688V56.765C33.8798 56.1955 32.762 55.8822 31.5985 55.8822H5.74468C5.11001 55.8822 4.59574 56.3966 4.59574 57.0311C4.59574 57.6657 5.11001 58.1801 5.74468 58.1801H31.5985C32.986 58.1801 34.2737 58.871 35.0435 60.028C35.0687 60.0657 35.0954 60.1005 35.1239 60.134C35.1314 60.1429 35.1395 60.1512 35.1473 60.1598C35.1686 60.1834 35.1905 60.206 35.2137 60.2278C35.2239 60.2374 35.2342 60.2468 35.2448 60.256C35.269 60.2771 35.2942 60.2972 35.3201 60.3163C35.3287 60.3226 35.337 60.3293 35.3457 60.3355C35.3816 60.3604 35.4188 60.3836 35.4576 60.4044C35.4955 60.4248 35.5349 60.4424 35.575 60.4585C35.5845 60.4623 35.5943 60.4655 35.604 60.4691C35.6354 60.4805 35.6671 60.4908 35.6997 60.4995C35.7115 60.5028 35.7235 60.506 35.7354 60.5087C35.7675 60.5162 35.7999 60.5222 35.8329 60.5271C35.8444 60.5288 35.8557 60.5309 35.8673 60.5323C35.911 60.5374 35.9553 60.5406 36.0003 60.5406C36.0458 60.5406 36.0896 60.5374 36.1331 60.5323C36.1452 60.5309 36.157 60.5287 36.169 60.5268C36.2013 60.5221 36.2333 60.5161 36.2649 60.5087C36.2773 60.5058 36.2894 60.5026 36.3016 60.4992C36.3337 60.4905 36.3651 60.4804 36.3958 60.4691C36.406 60.4654 36.4161 60.462 36.426 60.458C36.4655 60.4423 36.5042 60.4248 36.5414 60.405C36.582 60.3834 36.6189 60.3603 36.6546 60.3355C36.6638 60.3292 36.6724 60.3222 36.6814 60.3154C36.707 60.2966 36.7316 60.277 36.7555 60.2561C36.7663 60.2468 36.7768 60.2371 36.7873 60.2273C36.8101 60.2059 36.8318 60.1835 36.8527 60.1602C36.8608 60.1513 36.8691 60.1428 36.8769 60.1336C36.9052 60.1002 36.9317 60.0656 36.9561 60.0291C37.7265 58.8708 39.0142 58.1799 40.402 58.1799H43.4685C44.1032 58.1799 44.6175 57.6655 44.6175 57.031C44.6173 56.3963 44.1031 55.882 43.4685 55.882H40.402C39.2383 55.882 38.1206 56.1952 37.1494 56.7647V55.1686C37.931 54.1717 39.1236 53.5842 40.402 53.5842H43.4685C44.1032 53.5842 44.6175 53.0698 44.6175 52.4352C44.6173 51.8006 44.1031 51.2863 43.4685 51.2863H40.402C38.7449 51.2863 37.1796 51.9191 36.0003 53.0272C34.821 51.9193 33.2557 51.2863 31.599 51.2863H6.89362V4.3279H31.5985C32.9858 4.3279 34.2734 5.01941 35.0432 6.17769C35.2561 6.49817 35.6152 6.69073 36 6.69073C36.3848 6.69073 36.7439 6.49817 36.957 6.17769C37.7265 5.01941 39.0143 4.32805 40.4015 4.32805H65.1064V51.2866H58.7872C58.1527 51.2866 57.6385 51.8009 57.6383 52.4352C57.6383 53.0701 58.1526 53.5845 58.7872 53.5845H66.2553C66.89 53.5845 67.4043 53.0701 67.4043 52.4355V13.5194H69.7021V60.4779ZM52.3535 67.6723H49.9024C49.5286 67.6723 49.2128 67.3565 49.2128 66.9829V64.9148H53.0426V66.9829C53.0426 67.3565 52.727 67.6723 52.3535 67.6723ZM49.2128 62.617V60.3191H53.0426V62.617H49.2128ZM49.7872 17.0425L51.1278 13.8255L52.4681 17.0425H49.7872ZM49.2128 19.3404H53.0426V58.0212H49.2128V19.3404Z" fill="#082947"/>
<path d="M57.6382 57.0307C57.6382 57.6655 58.1524 58.18 58.7871 58.18H66.2552C66.8899 58.18 67.4041 57.6655 67.4041 57.031C67.4041 56.3965 66.8899 55.8821 66.2552 55.8821H58.7871C58.1526 55.8821 57.6383 56.3963 57.6382 57.0307Z" fill="#082947"/>
<path d="M49.2129 64.9148V66.9829C49.2129 67.3565 49.5288 67.6722 49.9026 67.6722H52.3536C52.7271 67.6722 53.0427 67.3565 53.0427 66.9829V64.9148H49.2129Z" fill="#F2484B"/>
<path d="M53.0427 60.3191H49.2129V62.617H53.0427V60.3191Z" fill="#6DA8D6"/>
<path d="M53.0427 19.3403H49.2129V58.0212H53.0427V19.3403Z" fill="#FFCC75"/>
<path d="M49.7871 17.0425H52.468L51.1277 13.8254L49.7871 17.0425Z" fill="#F2EBD9"/>
</svg>
