<svg width="23" height="23" viewBox="0 0 23 23" fill="none" xmlns="http://www.w3.org/2000/svg">
<path d="M6.6386 2.51038H5.93359V16.5346H6.6386V2.51038Z" fill="#808080"/>
<path d="M19.2244 0H6.28598C4.90194 0 3.77588 1.12606 3.77588 2.5101V20.4899C3.77588 21.874 4.90189 23 6.28598 23H19.2244V19.0515H18.5194V22.295H6.28593C5.29064 22.295 4.48084 21.4852 4.48084 20.4899C4.48084 19.4945 5.2906 18.6848 6.28593 18.6848H19.2243V0H19.2244ZM18.5193 17.9798H6.63848V17.2535H5.93348V18.0052C5.36697 18.0852 4.86043 18.3544 4.48088 18.7474V2.5101C4.48088 1.63543 5.10633 0.904277 5.93348 0.739863V1.7909H6.63848V0.705004H18.5194V17.9798H18.5193Z" fill="#808080"/>
<path d="M6.28604 19.7636V19.0586C5.4968 19.0586 4.85474 19.7007 4.85474 20.4899C4.85474 21.2791 5.4968 21.9212 6.28604 21.9212V21.2161C5.88556 21.2161 5.55979 20.8903 5.55979 20.4898C5.55979 20.0894 5.8856 19.7636 6.28604 19.7636Z" fill="#808080"/>
<path d="M7.35759 19.0515H6.65259V21.9284H7.35759V19.0515Z" fill="#808080"/>
<path d="M18.1525 19.0585H7.72437V19.7635H18.1525V19.0585Z" fill="#808080"/>
<path d="M18.1525 20.1372H7.72437V20.8422H18.1525V20.1372Z" fill="#808080"/>
<path d="M18.1525 21.2163H7.72437V21.9213H18.1525V21.2163Z" fill="#808080"/>
<path d="M14.557 16.1821H10.6013V16.8871H14.557V16.1821Z" fill="#808080"/>
<path d="M16.7072 1.79797H8.45068V8.25657H16.7072V1.79797ZM16.0022 7.55152H9.15573V2.50298H16.0022V7.55152H16.0022Z" fill="#808080"/>
<path d="M15.2759 3.23633H9.88208V3.94133H15.2759V3.23633Z" fill="#808080"/>
<path d="M13.8377 4.6748H9.88208V5.37981H13.8377V4.6748Z" fill="#808080"/>
<path d="M13.1184 6.11292H9.88208V6.81792H13.1184V6.11292Z" fill="#808080"/>
</svg>
