<svg width="24" height="23" viewBox="0 0 24 23" fill="none" xmlns="http://www.w3.org/2000/svg">
<g clip-path="url(#clip0_78_5650)">
<path d="M19.4486 0.948436V0.829887C19.4486 0.372313 19.0763 0 18.6187 0H17.6702C17.2126 0 16.8403 0.372313 16.8403 0.829887V0.948436H13.2836V0.829887C13.2836 0.372313 12.9113 0 12.4537 0H11.5053C11.0477 0 10.6754 0.372313 10.6754 0.829887V0.948436H7.11872V0.829887C7.11868 0.372313 6.74636 0 6.28879 0H5.34035C4.88273 0 4.51042 0.372313 4.51042 0.829887V0.948436H0.479492V23H23.4795V0.948436H19.4486ZM17.5516 0.829887C17.5516 0.765648 17.606 0.711338 17.6702 0.711338H18.6186C18.6829 0.711338 18.7372 0.765648 18.7372 0.829887V2.84535H17.5516V0.829887H17.5516ZM11.3867 0.829887C11.3867 0.765648 11.441 0.711338 11.5053 0.711338H12.4537C12.5179 0.711338 12.5722 0.765648 12.5722 0.829887V2.84535H11.3867V0.829887H11.3867ZM5.22176 0.829887C5.22176 0.765648 5.27607 0.711338 5.34031 0.711338H6.28874C6.35298 0.711338 6.40729 0.765648 6.40729 0.829887V2.84535H5.22171V0.829887H5.22176ZM22.7682 22.2887H1.19083V7.35052H22.7682V22.2887ZM22.7682 6.63918H1.19083V5.45361H20.2785V4.74227H1.19083V1.65977H4.51042V3.55669H7.11868V1.65977H10.6754V3.55669H13.2836V1.65977H16.8403V3.55669H19.4486V1.65977H22.7682V6.63918Z" fill="#808080"/>
<path d="M11.6237 8.29895V11.3814H2.13916V21.3402H17.0773V18.4949H21.8196V8.29895H11.6237ZM6.88143 20.6288H2.85054V18.4948H6.88147V20.6288H6.88143ZM6.88143 17.7835H2.85054V15.1752H6.88147V17.7835H6.88143ZM6.88143 14.4639H2.85054V12.0927H6.88147V14.4639H6.88143ZM11.6237 20.6288H7.59277V18.4948H11.6237V20.6288ZM11.6237 17.7835H7.59277V15.1752H11.6237V17.7835ZM11.6237 14.4639H7.59277V12.0927H11.6237V14.4639ZM16.366 20.6288H12.335V18.4948H16.366V20.6288ZM16.366 17.7835H12.335V15.1752H16.366V17.7835ZM16.366 14.4639H12.335V12.0927H16.366V14.4639ZM16.366 11.3814H12.335V9.01029H16.366V11.3814ZM21.1082 17.7835H17.0773V15.1752H21.1082V17.7835ZM21.1082 14.4639H17.0773V12.0927H21.1082V14.4639ZM21.1082 11.3814H17.0773V9.01029H21.1082V11.3814Z" fill="#808080"/>
</g>
<defs>
<clipPath id="clip0_78_5650">
<rect width="23" height="23" fill="white" transform="translate(0.479492)"/>
</clipPath>
</defs>
</svg>
