<svg width="23" height="23" viewBox="0 0 23 23" fill="none" xmlns="http://www.w3.org/2000/svg">
<path d="M18.9691 0.948436V0.829887C18.9691 0.372313 18.5968 0 18.1392 0H17.1907C16.7331 0 16.3608 0.372313 16.3608 0.829887V0.948436H12.8041V0.829887C12.8041 0.372313 12.4318 0 11.9742 0H11.0258C10.5682 0 10.1959 0.372313 10.1959 0.829887V0.948436H6.63923V0.829887C6.63918 0.372313 6.26687 0 5.8093 0H4.86086C4.40324 0 4.03093 0.372313 4.03093 0.829887V0.948436H0V23H23V0.948436H18.9691ZM17.0722 0.829887C17.0722 0.765648 17.1265 0.711338 17.1907 0.711338H18.1391C18.2034 0.711338 18.2577 0.765648 18.2577 0.829887V2.84535H17.0721V0.829887H17.0722ZM10.9072 0.829887C10.9072 0.765648 10.9615 0.711338 11.0258 0.711338H11.9742C12.0384 0.711338 12.0927 0.765648 12.0927 0.829887V2.84535H10.9072V0.829887H10.9072ZM4.74227 0.829887C4.74227 0.765648 4.79658 0.711338 4.86082 0.711338H5.80925C5.87349 0.711338 5.9278 0.765648 5.9278 0.829887V2.84535H4.74222V0.829887H4.74227ZM22.2887 22.2887H0.711338V7.35052H22.2887V22.2887ZM22.2887 6.63918H0.711338V5.45361H19.799V4.74227H0.711338V1.65977H4.03093V3.55669H6.63918V1.65977H10.1959V3.55669H12.8041V1.65977H16.3608V3.55669H18.9691V1.65977H22.2887V6.63918Z" fill="#808080"/>
<path d="M11.1442 8.29895V11.3814H1.65967V21.3402H16.5978V18.4949H21.3401V8.29895H11.1442ZM6.40194 20.6288H2.37105V18.4948H6.40198V20.6288H6.40194ZM6.40194 17.7835H2.37105V15.1752H6.40198V17.7835H6.40194ZM6.40194 14.4639H2.37105V12.0927H6.40198V14.4639H6.40194ZM11.1442 20.6288H7.11327V18.4948H11.1442V20.6288ZM11.1442 17.7835H7.11327V15.1752H11.1442V17.7835ZM11.1442 14.4639H7.11327V12.0927H11.1442V14.4639ZM15.8865 20.6288H11.8555V18.4948H15.8865V20.6288ZM15.8865 17.7835H11.8555V15.1752H15.8865V17.7835ZM15.8865 14.4639H11.8555V12.0927H15.8865V14.4639ZM15.8865 11.3814H11.8555V9.01029H15.8865V11.3814ZM20.6287 17.7835H16.5978V15.1752H20.6287V17.7835ZM20.6287 14.4639H16.5978V12.0927H20.6287V14.4639ZM20.6287 11.3814H16.5978V9.01029H20.6287V11.3814Z" fill="#808080"/>
</svg>
