<svg width="23" height="23" viewBox="0 0 23 23" fill="none" xmlns="http://www.w3.org/2000/svg">
<path d="M15.8125 4.3125H7.1875C5.96562 4.3125 5.03125 3.37813 5.03125 2.15625H17.9688C17.9688 3.37813 17.0344 4.3125 15.8125 4.3125Z" stroke="#F2111E" stroke-width="2" stroke-miterlimit="10" stroke-linecap="round" stroke-linejoin="round"/>
<path d="M7.1875 18.6875H15.8125C17.0344 18.6875 17.9688 19.6219 17.9688 20.8438H5.03125C5.03125 19.6219 5.96562 18.6875 7.1875 18.6875Z" stroke="#F2111E" stroke-width="2" stroke-miterlimit="10" stroke-linecap="round" stroke-linejoin="round"/>
<path d="M16.5312 18.6875V15.8125C16.5312 15.3812 16.3156 14.95 15.9562 14.6625L13.2968 12.65C12.5062 12.075 12.5062 10.925 13.2968 10.35L15.9562 8.3375C16.3156 8.05 16.5312 7.61875 16.5312 7.1875V4.3125" stroke="#F2111E" stroke-width="2" stroke-miterlimit="10" stroke-linecap="round" stroke-linejoin="round"/>
<path d="M6.46875 4.3125V7.1875C6.46875 7.61875 6.68438 8.05 7.04375 8.3375L9.70312 10.35C10.4938 10.925 10.4938 12.075 9.70312 12.65L7.04375 14.6625C6.68438 14.95 6.46875 15.3812 6.46875 15.8125V18.6875" stroke="#F2111E" stroke-width="2" stroke-miterlimit="10" stroke-linecap="round" stroke-linejoin="round"/>
<path d="M7.90625 18.6875L11.5 15.0938L15.0938 18.6875H7.90625Z" stroke="#F2111E" stroke-width="2" stroke-miterlimit="10" stroke-linecap="round" stroke-linejoin="round"/>
<path d="M11.5 8.625L9.34375 7.1875H13.6562L11.5 8.625Z" stroke="#F2111E" stroke-width="2" stroke-miterlimit="10" stroke-linecap="round" stroke-linejoin="round"/>
</svg>
