<svg width="225" height="54" viewBox="0 0 225 54" fill="none" xmlns="http://www.w3.org/2000/svg">
<ellipse cx="112.5" cy="27" rx="112.5" ry="27" fill="white"/>
<path d="M37.444 35V16.8H40.824V32.14H50.34V35H37.444ZM52.6965 35V21.116H55.9465V35H52.6965ZM54.3345 18.828C53.7278 18.828 53.2251 18.6373 52.8265 18.256C52.4451 17.8747 52.2545 17.4153 52.2545 16.878C52.2545 16.3233 52.4451 15.864 52.8265 15.5C53.2251 15.1187 53.7278 14.928 54.3345 14.928C54.9411 14.928 55.4351 15.11 55.8165 15.474C56.2151 15.8207 56.4145 16.2627 56.4145 16.8C56.4145 17.372 56.2238 17.8573 55.8425 18.256C55.4611 18.6373 54.9585 18.828 54.3345 18.828ZM68.0901 20.96C69.1994 20.96 70.1874 21.1767 71.0541 21.61C71.9381 22.0433 72.6314 22.7107 73.1341 23.612C73.6367 24.496 73.8881 25.64 73.8881 27.044V35H70.6381V27.46C70.6381 26.2293 70.3434 25.3107 69.7541 24.704C69.1821 24.0973 68.3761 23.794 67.3361 23.794C66.5734 23.794 65.8974 23.95 65.3081 24.262C64.7187 24.574 64.2594 25.042 63.9301 25.666C63.6181 26.2727 63.4621 27.044 63.4621 27.98V35H60.2121V21.116H63.3061V24.86L62.7601 23.716C63.2454 22.832 63.9474 22.156 64.8661 21.688C65.8021 21.2027 66.8767 20.96 68.0901 20.96ZM84.3283 40.226C83.0456 40.226 81.789 40.0527 80.5583 39.706C79.345 39.3767 78.3483 38.8913 77.5683 38.25L79.0243 35.806C79.631 36.3087 80.3936 36.7073 81.3123 37.002C82.2483 37.314 83.193 37.47 84.1463 37.47C85.6716 37.47 86.7896 37.1147 87.5003 36.404C88.211 35.7107 88.5663 34.662 88.5663 33.258V30.788L88.8263 27.642L88.7223 24.496V21.116H91.8163V32.894C91.8163 35.4073 91.175 37.2533 89.8923 38.432C88.6096 39.628 86.755 40.226 84.3283 40.226ZM83.9123 34.376C82.595 34.376 81.399 34.0987 80.3243 33.544C79.267 32.972 78.4263 32.1833 77.8023 31.178C77.1956 30.1727 76.8923 28.994 76.8923 27.642C76.8923 26.3073 77.1956 25.1373 77.8023 24.132C78.4263 23.1267 79.267 22.3467 80.3243 21.792C81.399 21.2373 82.595 20.96 83.9123 20.96C85.091 20.96 86.1483 21.194 87.0843 21.662C88.0203 22.13 88.7656 22.858 89.3203 23.846C89.8923 24.834 90.1783 26.0993 90.1783 27.642C90.1783 29.1847 89.8923 30.4587 89.3203 31.464C88.7656 32.452 88.0203 33.1887 87.0843 33.674C86.1483 34.142 85.091 34.376 83.9123 34.376ZM84.4063 31.62C85.221 31.62 85.949 31.4553 86.5903 31.126C87.2316 30.7793 87.7256 30.3113 88.0723 29.722C88.4363 29.1153 88.6183 28.422 88.6183 27.642C88.6183 26.862 88.4363 26.1773 88.0723 25.588C87.7256 24.9813 87.2316 24.522 86.5903 24.21C85.949 23.8807 85.221 23.716 84.4063 23.716C83.5916 23.716 82.855 23.8807 82.1963 24.21C81.555 24.522 81.0523 24.9813 80.6883 25.588C80.3416 26.1773 80.1683 26.862 80.1683 27.642C80.1683 28.422 80.3416 29.1153 80.6883 29.722C81.0523 30.3113 81.555 30.7793 82.1963 31.126C82.855 31.4553 83.5916 31.62 84.4063 31.62ZM102.329 35.182C100.908 35.182 99.6424 34.8787 98.533 34.272C97.4237 33.648 96.5484 32.7987 95.907 31.724C95.2657 30.6493 94.945 29.4273 94.945 28.058C94.945 26.6713 95.2657 25.4493 95.907 24.392C96.5484 23.3173 97.4237 22.4767 98.533 21.87C99.6424 21.2633 100.908 20.96 102.329 20.96C103.768 20.96 105.042 21.2633 106.151 21.87C107.278 22.4767 108.153 23.3087 108.777 24.366C109.418 25.4233 109.739 26.654 109.739 28.058C109.739 29.4273 109.418 30.6493 108.777 31.724C108.153 32.7987 107.278 33.648 106.151 34.272C105.042 34.8787 103.768 35.182 102.329 35.182ZM102.329 32.4C103.126 32.4 103.837 32.2267 104.461 31.88C105.085 31.5333 105.57 31.0307 105.917 30.372C106.281 29.7133 106.463 28.942 106.463 28.058C106.463 27.1567 106.281 26.3853 105.917 25.744C105.57 25.0853 105.085 24.5827 104.461 24.236C103.837 23.8893 103.135 23.716 102.355 23.716C101.558 23.716 100.847 23.8893 100.223 24.236C99.6164 24.5827 99.131 25.0853 98.767 25.744C98.403 26.3853 98.221 27.1567 98.221 28.058C98.221 28.942 98.403 29.7133 98.767 30.372C99.131 31.0307 99.6164 31.5333 100.223 31.88C100.847 32.2267 101.549 32.4 102.329 32.4Z" fill="#7A4DFA"/>
<path d="M112.847 35V15.708H116.097V35H112.847ZM128.916 35V32.192L128.734 31.594V26.68C128.734 25.7267 128.448 24.99 127.876 24.47C127.304 23.9327 126.438 23.664 125.276 23.664C124.496 23.664 123.725 23.7853 122.962 24.028C122.217 24.2707 121.584 24.6087 121.064 25.042L119.79 22.676C120.536 22.104 121.42 21.6793 122.442 21.402C123.482 21.1073 124.557 20.96 125.666 20.96C127.677 20.96 129.228 21.4453 130.32 22.416C131.43 23.3693 131.984 24.8513 131.984 26.862V35H128.916ZM124.548 35.182C123.508 35.182 122.598 35.0087 121.818 34.662C121.038 34.298 120.432 33.804 119.998 33.18C119.582 32.5387 119.374 31.8193 119.374 31.022C119.374 30.242 119.556 29.54 119.92 28.916C120.302 28.292 120.917 27.798 121.766 27.434C122.616 27.07 123.742 26.888 125.146 26.888H129.176V29.046H125.38C124.271 29.046 123.526 29.228 123.144 29.592C122.763 29.9387 122.572 30.372 122.572 30.892C122.572 31.4813 122.806 31.9493 123.274 32.296C123.742 32.6427 124.392 32.816 125.224 32.816C126.022 32.816 126.732 32.634 127.356 32.27C127.998 31.906 128.457 31.3687 128.734 30.658L129.28 32.608C128.968 33.4227 128.405 34.0553 127.59 34.506C126.793 34.9567 125.779 35.182 124.548 35.182ZM144.033 20.96C145.143 20.96 146.131 21.1767 146.997 21.61C147.881 22.0433 148.575 22.7107 149.077 23.612C149.58 24.496 149.831 25.64 149.831 27.044V35H146.581V27.46C146.581 26.2293 146.287 25.3107 145.697 24.704C145.125 24.0973 144.319 23.794 143.279 23.794C142.517 23.794 141.841 23.95 141.251 24.262C140.662 24.574 140.203 25.042 139.873 25.666C139.561 26.2727 139.405 27.044 139.405 27.98V35H136.155V21.116H139.249V24.86L138.703 23.716C139.189 22.832 139.891 22.156 140.809 21.688C141.745 21.2027 142.82 20.96 144.033 20.96ZM159.856 35.182C158.521 35.182 157.316 34.8873 156.242 34.298C155.184 33.6913 154.352 32.8593 153.746 31.802C153.139 30.7447 152.836 29.4967 152.836 28.058C152.836 26.6193 153.139 25.3713 153.746 24.314C154.352 23.2567 155.184 22.4333 156.242 21.844C157.316 21.2547 158.521 20.96 159.856 20.96C161.017 20.96 162.057 21.22 162.976 21.74C163.894 22.2427 164.622 23.014 165.16 24.054C165.697 25.094 165.966 26.4287 165.966 28.058C165.966 29.67 165.706 31.0047 165.186 32.062C164.666 33.102 163.946 33.882 163.028 34.402C162.109 34.922 161.052 35.182 159.856 35.182ZM160.246 32.4C161.026 32.4 161.719 32.2267 162.326 31.88C162.95 31.5333 163.444 31.0307 163.808 30.372C164.189 29.7133 164.38 28.942 164.38 28.058C164.38 27.1567 164.189 26.3853 163.808 25.744C163.444 25.0853 162.95 24.5827 162.326 24.236C161.719 23.8893 161.026 23.716 160.246 23.716C159.466 23.716 158.764 23.8893 158.14 24.236C157.533 24.5827 157.039 25.0853 156.658 25.744C156.294 26.3853 156.112 27.1567 156.112 28.058C156.112 28.942 156.294 29.7133 156.658 30.372C157.039 31.0307 157.533 31.5333 158.14 31.88C158.764 32.2267 159.466 32.4 160.246 32.4ZM164.458 35V31.724L164.588 28.032L164.328 24.34V15.708H167.552V35H164.458ZM176.119 35.182C174.958 35.182 173.84 35.0347 172.765 34.74C171.708 34.428 170.867 34.0553 170.243 33.622L171.491 31.152C172.115 31.5507 172.861 31.88 173.727 32.14C174.594 32.4 175.461 32.53 176.327 32.53C177.35 32.53 178.087 32.3913 178.537 32.114C179.005 31.8367 179.239 31.464 179.239 30.996C179.239 30.6147 179.083 30.3287 178.771 30.138C178.459 29.93 178.052 29.774 177.549 29.67C177.047 29.566 176.483 29.4707 175.859 29.384C175.253 29.2973 174.637 29.1847 174.013 29.046C173.407 28.89 172.852 28.6733 172.349 28.396C171.847 28.1013 171.439 27.7113 171.127 27.226C170.815 26.7407 170.659 26.0993 170.659 25.302C170.659 24.418 170.911 23.6553 171.413 23.014C171.916 22.3553 172.618 21.8527 173.519 21.506C174.438 21.142 175.521 20.96 176.769 20.96C177.705 20.96 178.65 21.064 179.603 21.272C180.557 21.48 181.345 21.7747 181.969 22.156L180.721 24.626C180.063 24.2273 179.395 23.9587 178.719 23.82C178.061 23.664 177.402 23.586 176.743 23.586C175.755 23.586 175.019 23.7333 174.533 24.028C174.065 24.3227 173.831 24.6953 173.831 25.146C173.831 25.562 173.987 25.874 174.299 26.082C174.611 26.29 175.019 26.4547 175.521 26.576C176.024 26.6973 176.579 26.8013 177.185 26.888C177.809 26.9573 178.425 27.07 179.031 27.226C179.638 27.382 180.193 27.5987 180.695 27.876C181.215 28.136 181.631 28.5087 181.943 28.994C182.255 29.4793 182.411 30.112 182.411 30.892C182.411 31.7587 182.151 32.5127 181.631 33.154C181.129 33.7953 180.409 34.298 179.473 34.662C178.537 35.0087 177.419 35.182 176.119 35.182Z" fill="#F6D524"/>
</svg>
