<svg width="36" height="35" viewBox="0 0 36 35" fill="none" xmlns="http://www.w3.org/2000/svg">
<path d="M26.4188 4.12109C26.095 4.12109 25.833 4.37083 25.833 4.67942C25.833 4.98807 26.095 5.23775 26.4188 5.23775C28.48 5.23775 30.1568 6.83586 30.1568 8.80039C30.1568 9.10898 30.4189 9.35872 30.7427 9.35872C31.0665 9.35872 31.3285 9.10898 31.3285 8.80039C31.3285 6.2203 29.126 4.12109 26.4188 4.12109Z" fill="black"/>
<path d="M4.32373 8.80039C4.32373 9.10898 4.58571 9.35872 4.90955 9.35872C5.23334 9.35872 5.49537 9.10898 5.49537 8.80039C5.49537 6.83586 7.17217 5.23775 9.23339 5.23775C9.55723 5.23775 9.81921 4.98807 9.81921 4.67942C9.81921 4.37083 9.55723 4.12109 9.23339 4.12109C6.52624 4.12109 4.32373 6.2203 4.32373 8.80039Z" fill="black"/>
<path d="M27.2826 0C26.9588 0 26.6968 0.24974 26.6968 0.558329C26.6968 0.866917 26.9588 1.11666 27.2826 1.11666C31.2512 1.11666 34.4801 4.19344 34.4801 7.97578C34.4801 8.28443 34.7421 8.53411 35.0659 8.53411C35.3897 8.53411 35.6517 8.28443 35.6517 7.97578C35.6517 3.57788 31.8971 0 27.2826 0Z" fill="black"/>
<path d="M8.9544 0.558329C8.9544 0.24974 8.69237 0 8.36858 0C3.75406 0 0 3.57788 0 7.97578C0 8.28443 0.262038 8.53411 0.585822 8.53411C0.909606 8.53411 1.17164 8.28443 1.17164 7.97578C1.17164 4.19344 4.39993 1.11666 8.36858 1.11666C8.69237 1.11666 8.9544 0.866917 8.9544 0.558329Z" fill="black"/>
<path d="M29.4212 25.0828C29.3462 24.8691 29.2049 24.6939 29.0333 24.5544C29.0471 24.2142 29.0559 23.872 29.0559 23.5265C29.0559 15.9221 25.7512 9.48198 21.1857 7.27334C21.2537 7.01059 21.2937 6.73729 21.2937 6.45444C21.2937 4.56874 19.6897 3.04004 17.7112 3.04004C15.7326 3.04004 14.1286 4.56874 14.1286 6.45444C14.1286 6.73729 14.1687 7.01059 14.2367 7.27334C9.67119 9.48198 6.36645 15.9221 6.36645 23.5265C6.36645 23.872 6.37524 24.2142 6.38906 24.5544C6.21748 24.6939 6.07618 24.8691 6.00119 25.0828L4.30377 29.9216C4.0289 30.7051 4.64085 31.5148 5.50793 31.5148H13.7825C14.2869 33.1288 15.8538 34.3065 17.7112 34.3065C19.5685 34.3065 21.1355 33.1288 21.6399 31.5148H29.9144C30.7815 31.5148 31.3935 30.7051 31.1186 29.9216L29.4212 25.0828ZM14.7772 8.28822L15.6234 7.87885L15.3961 7.00077C15.3468 6.81021 15.3228 6.63149 15.3228 6.45444C15.3228 5.19932 16.3943 4.17819 17.7112 4.17819C19.0281 4.17819 20.0996 5.19932 20.0996 6.45444C20.0996 6.63149 20.0756 6.81021 20.0262 7.00077L19.799 7.87885L20.6452 8.28822C24.8942 10.3438 27.8617 16.6099 27.8617 23.5265C27.8617 23.7601 27.8581 23.9966 27.8511 24.2351H7.57125C7.56422 23.9966 7.56065 23.7601 7.56065 23.5265C7.56065 16.6099 10.5282 10.3438 14.7772 8.28822ZM17.7112 33.1898C16.5124 33.1898 15.4795 32.5 15.0267 31.5148H20.3957C19.9429 32.5 18.91 33.1898 17.7112 33.1898ZM29.9941 30.3593C29.9648 30.3982 29.9295 30.3982 29.9144 30.3982H21.8119H13.6104H5.50793C5.49287 30.3982 5.45761 30.3982 5.42826 30.3593C5.39914 30.3208 5.41021 30.2892 5.41496 30.2757L7.11238 25.4369C7.12579 25.3988 7.16311 25.3732 7.20541 25.3732H28.217C28.2593 25.3732 28.2966 25.3988 28.31 25.4368L30.0074 30.2757C30.0122 30.2892 30.0232 30.3208 29.9941 30.3593Z" fill="black"/>
</svg>
