<svg width="23" height="23" viewBox="0 0 23 23" fill="none" xmlns="http://www.w3.org/2000/svg">
<path d="M19.6318 3.36824C17.4597 1.19624 14.5718 0 11.5 0C8.42824 0 5.54034 1.19624 3.36824 3.36824C1.19624 5.54034 0 8.42824 0 11.5C0 14.5718 1.19624 17.4597 3.36824 19.6318C5.54034 21.8038 8.42824 23 11.5 23C14.5718 23 17.4597 21.8038 19.6318 19.6318C21.8038 17.4597 23 14.5718 23 11.5C23 8.42824 21.8038 5.54034 19.6318 3.36824ZM11.5 21.5773C5.94334 21.5773 1.42268 17.0567 1.42268 11.5C1.42268 5.94334 5.94334 1.42268 11.5 1.42268C17.0567 1.42268 21.5773 5.94334 21.5773 11.5C21.5773 17.0567 17.0567 21.5773 11.5 21.5773Z" fill="white"/>
<path d="M8.58643 15.9616L16.3104 11.5004L8.58643 7.03906V15.9616Z" fill="white"/>
</svg>
