<svg width="17" height="17" viewBox="0 0 17 17" fill="none" xmlns="http://www.w3.org/2000/svg">
<path d="M4.70986 5.94892V1.43164L11.0838 4.3289H15.43V6.42218H17V10.577H15.43V12.6703H11.0838L4.70986 15.5676V11.0503C3.51799 10.8135 2.61658 9.75997 2.61658 8.49958C2.61658 7.2392 3.51793 6.18565 4.70986 5.94892ZM15.43 9.56211H15.9851V7.43711H15.43V9.56211ZM5.72479 13.9913L10.8639 11.6554H14.4151V5.34382H10.8639L5.72479 3.00782V13.9913ZM4.70986 10.0017V6.99749C4.08365 7.20966 3.63151 7.80258 3.63151 8.49958C3.63151 9.19658 4.08365 9.78955 4.70986 10.0017Z" fill="white"/>
<path d="M2.93355 4.14844L3.31445 5.08917C1.91746 5.65484 1.01483 6.99363 1.01483 8.49988C1.01483 10.0061 1.91746 11.3449 3.3144 11.9106L2.9335 12.8513C1.15139 12.1297 -9.05991e-05 10.4217 -9.05991e-05 8.49988C-9.05991e-05 6.57807 1.15139 4.8701 2.93355 4.14844Z" fill="white"/>
</svg>
