<svg width="24" height="23" viewBox="0 0 24 23" fill="none" xmlns="http://www.w3.org/2000/svg">
<g clip-path="url(#clip0_1301_2827)">
<path d="M16.8169 6.13382H12.2169C12.0049 6.13382 11.8336 5.96209 11.8336 5.75051C11.8336 5.53892 12.0049 5.36719 12.2169 5.36719H16.8169C17.0289 5.36719 17.2002 5.53892 17.2002 5.75051C17.2002 5.96209 17.0289 6.13382 16.8169 6.13382Z" fill="#434D55"/>
<path d="M14.5178 12.2676H17.5845C17.7964 12.2676 17.9678 12.4393 17.9678 12.6509C17.9678 12.8625 17.7964 13.0342 17.5845 13.0342H14.5178C14.3058 13.0342 14.1345 12.8625 14.1345 12.6509C14.1345 12.4393 14.3058 12.2676 14.5178 12.2676Z" fill="#434D55"/>
<path d="M15.6677 10.3511C15.6677 10.1395 15.8391 9.96777 16.0511 9.96777H18.3511C18.563 9.96777 18.7344 10.1395 18.7344 10.3511C18.7344 10.5627 18.563 10.7344 18.3511 10.7344H16.0511C15.8391 10.7344 15.6677 10.5627 15.6677 10.3511Z" fill="#434D55"/>
<path d="M18.3511 8.43461H12.9844C12.7724 8.43461 12.6011 8.26287 12.6011 8.05129C12.6011 7.83971 12.7724 7.66797 12.9844 7.66797H18.3511C18.563 7.66797 18.7344 7.83971 18.7344 8.05129C18.7344 8.26287 18.563 8.43461 18.3511 8.43461Z" fill="#434D55"/>
<path d="M11.4506 12.2676H12.9839C13.1959 12.2676 13.3672 12.4393 13.3672 12.6509C13.3672 12.8625 13.1959 13.0342 12.9839 13.0342H11.4506C11.2386 13.0342 11.0672 12.8625 11.0672 12.6509C11.0672 12.4393 11.2386 12.2676 11.4506 12.2676Z" fill="#434D55"/>
<path d="M5.97967 15.1863C6.12917 15.3358 6.12917 15.5789 5.97967 15.7284L5.16623 16.5418C5.09148 16.617 4.99332 16.6541 4.89521 16.6541C4.79746 16.6541 4.69931 16.6169 4.6242 16.5418C4.4747 16.3923 4.4747 16.1496 4.6242 15.9998L5.43724 15.1863C5.58714 15.0368 5.82981 15.0368 5.97967 15.1863Z" fill="#434D55"/>
<path d="M0.895936 19.729L3.58235 17.043C3.65405 16.9709 3.75139 16.9307 3.85337 16.9307H3.85373C3.95529 16.9307 4.05304 16.9713 4.12514 17.0434L5.20615 18.1305C5.35565 18.2808 5.35488 18.5231 5.20462 18.6726C5.05395 18.8221 4.81169 18.8217 4.66259 18.671L3.8526 17.8568L1.43801 20.2711C1.22104 20.4884 1.10105 20.7771 1.10105 21.0841C1.10105 21.3911 1.22104 21.6802 1.43801 21.8971C1.8861 22.3452 2.61523 22.346 3.06409 21.8975L7.60659 17.355C7.75609 17.2055 7.99876 17.2055 8.14862 17.355C8.29812 17.5049 8.29812 17.7476 8.14862 17.8975L3.60612 22.4396C3.23277 22.8133 2.74209 23 2.25141 23C1.76073 23 1.26933 22.813 0.895936 22.4396C0.53409 22.0773 0.334367 21.5962 0.334367 21.0841C0.334367 20.5723 0.53409 20.0908 0.895936 19.729Z" fill="#434D55"/>
<path d="M4.93398 9.20098C4.93398 4.12831 9.06132 0.000976562 14.134 0.000976562C19.2067 0.000976562 23.334 4.12831 23.334 9.20098C23.334 14.2736 19.2067 18.401 14.134 18.401C9.06132 18.401 4.93398 14.2736 4.93398 9.20098ZM14.134 17.6343C18.7842 17.6343 22.5673 13.8512 22.5673 9.20098C22.5673 4.55075 18.7842 0.767613 14.134 0.767613C9.48376 0.767613 5.70066 4.55071 5.70066 9.20093C5.70066 13.8512 9.48376 17.6343 14.134 17.6343Z" fill="#434D55"/>
<path d="M14.1341 1.53418C18.3615 1.53418 21.8008 4.97344 21.8008 9.20086C21.8008 13.4283 18.3615 16.8675 14.1341 16.8675C9.90668 16.8675 6.46742 13.4282 6.46742 9.20082C6.46742 4.9734 9.90668 1.53418 14.1341 1.53418ZM14.1341 16.1009C17.9387 16.1009 21.0341 13.0054 21.0341 9.20086C21.0341 5.39629 17.9387 2.30086 14.1341 2.30086C10.3295 2.30086 7.2341 5.39629 7.2341 9.20086C7.2341 13.0054 10.3295 16.1009 14.1341 16.1009Z" fill="#434D55"/>
<path d="M9.91732 9.96777H14.5173C14.7293 9.96777 14.9006 10.1395 14.9006 10.3511C14.9006 10.5627 14.7293 10.7344 14.5173 10.7344H9.91732C9.70533 10.7344 9.534 10.5627 9.534 10.3511C9.534 10.1395 9.70533 9.96777 9.91732 9.96777Z" fill="#434D55"/>
<path d="M9.91735 7.66797H11.4507C11.6627 7.66797 11.834 7.8397 11.834 8.05129C11.834 8.26287 11.6627 8.43461 11.4507 8.43461H9.91735C9.70536 8.43461 9.53403 8.26287 9.53403 8.05129C9.53403 7.8397 9.70536 7.66797 9.91735 7.66797Z" fill="#434D55"/>
</g>
<defs>
<clipPath id="clip0_1301_2827">
<rect width="23" height="23" fill="white" transform="matrix(-1 0 0 1 23.334 0)"/>
</clipPath>
</defs>
</svg>
