<svg width="1278" height="589" viewBox="0 0 1278 589" fill="none" xmlns="http://www.w3.org/2000/svg">
<rect width="1278" height="589" fill="#71B33D"/>
<path d="M474.301 336L440.853 256.9H469.555L496.788 323.683H479.725L507.749 256.9H533.965L500.517 336H474.301ZM536.619 336V256.9H563.287V336H536.619ZM576.125 336V256.9H615.11C623.924 256.9 631.683 258.52 638.388 261.759C645.092 264.923 650.328 269.443 654.095 275.319C657.861 281.195 659.745 288.201 659.745 296.337C659.745 304.548 657.861 311.63 654.095 317.581C650.328 323.457 645.092 328.015 638.388 331.254C631.683 334.418 623.924 336 615.11 336H576.125ZM602.793 315.208H613.98C617.746 315.208 621.023 314.492 623.811 313.061C626.673 311.63 628.896 309.52 630.478 306.733C632.06 303.87 632.851 300.405 632.851 296.337C632.851 292.344 632.06 288.954 630.478 286.167C628.896 283.38 626.673 281.27 623.811 279.839C621.023 278.408 617.746 277.692 613.98 277.692H602.793V315.208ZM693.89 286.28H729.146V305.49H693.89V286.28ZM695.698 315.886H735.248V336H669.482V256.9H733.779V277.014H695.698V315.886ZM786.985 337.808C780.582 337.808 774.631 336.791 769.131 334.757C763.707 332.723 758.999 329.86 755.006 326.169C751.014 322.402 747.887 317.995 745.627 312.948C743.443 307.901 742.35 302.401 742.35 296.45C742.35 290.423 743.443 284.924 745.627 279.952C747.887 274.905 751.014 270.535 755.006 266.844C758.999 263.077 763.707 260.177 769.131 258.143C774.631 256.109 780.582 255.092 786.985 255.092C793.464 255.092 799.415 256.109 804.839 258.143C810.263 260.177 814.972 263.077 818.964 266.844C822.957 270.535 826.046 274.905 828.23 279.952C830.49 284.924 831.62 290.423 831.62 296.45C831.62 302.401 830.49 307.901 828.23 312.948C826.046 317.995 822.957 322.402 818.964 326.169C814.972 329.86 810.263 332.723 804.839 334.757C799.415 336.791 793.464 337.808 786.985 337.808ZM786.985 316.225C789.471 316.225 791.769 315.773 793.878 314.869C796.063 313.965 797.946 312.684 799.528 311.027C801.186 309.294 802.466 307.223 803.37 304.812C804.274 302.326 804.726 299.539 804.726 296.45C804.726 293.361 804.274 290.612 803.37 288.201C802.466 285.715 801.186 283.643 799.528 281.986C797.946 280.253 796.063 278.935 793.878 278.031C791.769 277.127 789.471 276.675 786.985 276.675C784.499 276.675 782.164 277.127 779.979 278.031C777.87 278.935 775.987 280.253 774.329 281.986C772.747 283.643 771.504 285.715 770.6 288.201C769.696 290.612 769.244 293.361 769.244 296.45C769.244 299.539 769.696 302.326 770.6 304.812C771.504 307.223 772.747 309.294 774.329 311.027C775.987 312.684 777.87 313.965 779.979 314.869C782.164 315.773 784.499 316.225 786.985 316.225Z" fill="white"/>
</svg>
