<svg width="23" height="23" viewBox="0 0 23 23" fill="none" xmlns="http://www.w3.org/2000/svg">
<path d="M17.25 13.6562H12.9375V15.0938H17.25V13.6562Z" fill="#808080"/>
<path d="M21.5625 10.7812H12.9375V12.2188H21.5625V10.7812Z" fill="#808080"/>
<path d="M21.5625 7.90625H12.9375V9.34375H21.5625V7.90625Z" fill="#808080"/>
<path d="M10.0625 15.0938V13.6562H6.46875V12.2188H5.03125V13.6562H1.4375V15.0938H7.34189C7.07771 16.1725 6.5275 17.16 5.74921 17.9523C5.34126 17.5267 4.99158 17.0488 4.70932 16.5312H3.11463C3.48 17.4084 4.0025 18.2113 4.65642 18.9007C3.88587 19.4495 3.04492 19.892 2.15625 20.2163L2.66088 21.5625C3.76685 21.1597 4.80633 20.5937 5.74483 19.8834C6.6869 20.594 7.72984 21.16 8.83912 21.5625L9.34375 20.2163C8.45555 19.8926 7.61493 19.4509 6.84451 18.9031C7.85902 17.8541 8.5413 16.5289 8.80584 15.0938H10.0625Z" fill="#808080"/>
<path d="M8.02599 9.34375H9.58309L6.28906 1.4375H4.73167L1.4375 9.34375H2.9946L3.59375 7.90625H7.4272L8.02599 9.34375ZM4.19254 6.46875L5.5103 3.30625L6.82812 6.46875H4.19254Z" fill="#808080"/>
</svg>
