<svg width="24" height="23" viewBox="0 0 24 23" fill="none" xmlns="http://www.w3.org/2000/svg">
<g clip-path="url(#clip0_84_8318)">
<path d="M22.7598 5.39062H17.7285C17.7285 4.99334 17.4067 4.67188 17.0098 4.67188V3.95312C17.0098 2.76409 16.0426 1.79688 14.8535 1.79688H9.10352C7.91448 1.79688 6.94727 2.76409 6.94727 3.95312V4.67188C6.55034 4.67188 6.22852 4.99334 6.22852 5.39062H1.19727C0.800336 5.39062 0.478516 5.71209 0.478516 6.10938V19.7656C0.478516 20.1629 0.800336 20.4844 1.19727 20.4844H3.35352C3.35352 20.8813 3.67529 21.2031 4.07227 21.2031H5.50977C5.90674 21.2031 6.22852 20.8813 6.22852 20.4844H17.7285C17.7285 20.8813 18.0503 21.2031 18.4473 21.2031H19.8848C20.2817 21.2031 20.6035 20.8813 20.6035 20.4844H22.7598C23.1567 20.4844 23.4785 20.1629 23.4785 19.7656V6.10938C23.4785 5.71209 23.1567 5.39062 22.7598 5.39062ZM8.38477 3.95312C8.38477 3.55655 8.7073 3.23438 9.10352 3.23438H14.8535C15.2497 3.23438 15.5723 3.55655 15.5723 3.95312V4.67188C15.1753 4.67188 14.8535 4.99334 14.8535 5.39062H9.10352C9.10352 4.99334 8.7817 4.67188 8.38477 4.67188V3.95312ZM22.041 19.0469H1.91602V6.82812H22.041V19.0469Z" fill="black" fill-opacity="0.5"/>
<path d="M6.22852 16.8906C6.62545 16.8906 6.94727 16.5692 6.94727 16.1719V9.70312C6.94727 9.30584 6.62545 8.98438 6.22852 8.98438C5.83159 8.98438 5.50977 9.30584 5.50977 9.70312V16.1719C5.50977 16.5692 5.83159 16.8906 6.22852 16.8906Z" fill="black" fill-opacity="0.5"/>
<path d="M17.7285 16.8906C18.1254 16.8906 18.4473 16.5692 18.4473 16.1719V9.70312C18.4473 9.30584 18.1254 8.98438 17.7285 8.98438C17.3316 8.98438 17.0098 9.30584 17.0098 9.70312V16.1719C17.0098 16.5692 17.3316 16.8906 17.7285 16.8906Z" fill="black" fill-opacity="0.5"/>
</g>
<defs>
<clipPath id="clip0_84_8318">
<rect width="23" height="23" fill="white" transform="translate(0.478516)"/>
</clipPath>
</defs>
</svg>
