<svg width="21" height="22" viewBox="0 0 21 22" fill="none" xmlns="http://www.w3.org/2000/svg">
<g clip-path="url(#clip0_1462_4157)">
<path d="M1.52063 11.0682L2.56148 12.1091C6.85198 16.3996 13.832 16.3996 18.1225 12.1091L19.1593 11.0682L18.1185 10.0274C13.828 5.73691 6.848 5.73691 2.5575 10.0274L1.52063 11.0682V11.0682ZM10.34 16.0818C7.3287 16.0818 4.3174 14.9337 2.02516 12.6414L0.718152 11.3344C0.571163 11.1874 0.571163 10.9491 0.718152 10.7981L2.02516 9.49109C6.60964 4.90662 14.0703 4.90662 18.6548 9.49109L19.9618 10.7981C20.1088 10.9451 20.1088 11.1835 19.9618 11.3344L18.6548 12.6414C16.3626 14.9337 13.3513 16.0818 10.34 16.0818V16.0818Z" fill="#808080"/>
<path d="M10.3401 8.18743C8.75101 8.18743 7.45989 9.47855 7.45989 11.0676C7.45989 12.6567 8.75101 13.9478 10.3401 13.9478C11.9292 13.9478 13.2203 12.6567 13.2203 11.0676C13.2203 9.47855 11.9292 8.18743 10.3401 8.18743ZM10.3401 14.7026C8.33388 14.7026 6.70508 13.0699 6.70508 11.0676C6.70508 9.06142 8.33785 7.43262 10.3401 7.43262C12.3423 7.43262 13.9751 9.06539 13.9751 11.0676C13.9751 13.0738 12.3463 14.7026 10.3401 14.7026Z" fill="#808080"/>
</g>
<defs>
<clipPath id="clip0_1462_4157">
<rect width="20.3401" height="20.3401" fill="white" transform="translate(0.169922 0.898438)"/>
</clipPath>
</defs>
</svg>
